<mxfile host="app.diagrams.net" agent="Mozilla/5.0 (Windows NT 10.0; Win64; x64) AppleWebKit/537.36 (KHTML, like Gecko) Chrome/131.0.0.0 Safari/537.36 Edg/131.0.0.0" version="25.0.3">
  <diagram id="C5RBs43oDa-KdzZeNtuy" name="Page-1">
    <mxGraphModel dx="1042" dy="1734" grid="1" gridSize="10" guides="1" tooltips="1" connect="1" arrows="1" fold="1" page="1" pageScale="1" pageWidth="827" pageHeight="1169" math="0" shadow="0">
      <root>
        <mxCell id="WIyWlLk6GJQsqaUBKTNV-0" />
        <mxCell id="WIyWlLk6GJQsqaUBKTNV-1" parent="WIyWlLk6GJQsqaUBKTNV-0" />
        <mxCell id="c1LAtdK7PtH2g0Vv_y1h-2" value="" style="edgeStyle=orthogonalEdgeStyle;rounded=0;orthogonalLoop=1;jettySize=auto;html=1;" edge="1" parent="WIyWlLk6GJQsqaUBKTNV-1" source="c1LAtdK7PtH2g0Vv_y1h-0" target="c1LAtdK7PtH2g0Vv_y1h-1">
          <mxGeometry relative="1" as="geometry" />
        </mxCell>
        <mxCell id="c1LAtdK7PtH2g0Vv_y1h-0" value="START" style="ellipse;whiteSpace=wrap;html=1;" vertex="1" parent="WIyWlLk6GJQsqaUBKTNV-1">
          <mxGeometry x="354" y="-1120" width="120" height="80" as="geometry" />
        </mxCell>
        <mxCell id="c1LAtdK7PtH2g0Vv_y1h-4" value="" style="edgeStyle=orthogonalEdgeStyle;rounded=0;orthogonalLoop=1;jettySize=auto;html=1;" edge="1" parent="WIyWlLk6GJQsqaUBKTNV-1" source="c1LAtdK7PtH2g0Vv_y1h-1" target="c1LAtdK7PtH2g0Vv_y1h-3">
          <mxGeometry relative="1" as="geometry" />
        </mxCell>
        <mxCell id="c1LAtdK7PtH2g0Vv_y1h-1" value="input num" style="shape=parallelogram;perimeter=parallelogramPerimeter;whiteSpace=wrap;html=1;fixedSize=1;" vertex="1" parent="WIyWlLk6GJQsqaUBKTNV-1">
          <mxGeometry x="354" y="-950" width="120" height="60" as="geometry" />
        </mxCell>
        <mxCell id="c1LAtdK7PtH2g0Vv_y1h-6" value="" style="edgeStyle=orthogonalEdgeStyle;rounded=0;orthogonalLoop=1;jettySize=auto;html=1;" edge="1" parent="WIyWlLk6GJQsqaUBKTNV-1" source="c1LAtdK7PtH2g0Vv_y1h-3" target="c1LAtdK7PtH2g0Vv_y1h-5">
          <mxGeometry relative="1" as="geometry" />
        </mxCell>
        <mxCell id="c1LAtdK7PtH2g0Vv_y1h-7" value="" style="edgeStyle=orthogonalEdgeStyle;rounded=0;orthogonalLoop=1;jettySize=auto;html=1;" edge="1" parent="WIyWlLk6GJQsqaUBKTNV-1" source="c1LAtdK7PtH2g0Vv_y1h-3" target="c1LAtdK7PtH2g0Vv_y1h-5">
          <mxGeometry relative="1" as="geometry" />
        </mxCell>
        <mxCell id="c1LAtdK7PtH2g0Vv_y1h-9" style="edgeStyle=orthogonalEdgeStyle;rounded=0;orthogonalLoop=1;jettySize=auto;html=1;entryX=0.5;entryY=0;entryDx=0;entryDy=0;" edge="1" parent="WIyWlLk6GJQsqaUBKTNV-1" source="c1LAtdK7PtH2g0Vv_y1h-3" target="c1LAtdK7PtH2g0Vv_y1h-8">
          <mxGeometry relative="1" as="geometry" />
        </mxCell>
        <mxCell id="c1LAtdK7PtH2g0Vv_y1h-3" value="is num &amp;gt;=5?" style="rhombus;whiteSpace=wrap;html=1;" vertex="1" parent="WIyWlLk6GJQsqaUBKTNV-1">
          <mxGeometry x="374" y="-820" width="80" height="80" as="geometry" />
        </mxCell>
        <mxCell id="c1LAtdK7PtH2g0Vv_y1h-11" value="" style="edgeStyle=orthogonalEdgeStyle;rounded=0;orthogonalLoop=1;jettySize=auto;html=1;" edge="1" parent="WIyWlLk6GJQsqaUBKTNV-1" source="c1LAtdK7PtH2g0Vv_y1h-5" target="c1LAtdK7PtH2g0Vv_y1h-10">
          <mxGeometry relative="1" as="geometry" />
        </mxCell>
        <mxCell id="c1LAtdK7PtH2g0Vv_y1h-5" value="yes" style="whiteSpace=wrap;html=1;" vertex="1" parent="WIyWlLk6GJQsqaUBKTNV-1">
          <mxGeometry x="260" y="-700" width="120" height="60" as="geometry" />
        </mxCell>
        <mxCell id="c1LAtdK7PtH2g0Vv_y1h-13" value="" style="edgeStyle=orthogonalEdgeStyle;rounded=0;orthogonalLoop=1;jettySize=auto;html=1;" edge="1" parent="WIyWlLk6GJQsqaUBKTNV-1" source="c1LAtdK7PtH2g0Vv_y1h-8" target="c1LAtdK7PtH2g0Vv_y1h-12">
          <mxGeometry relative="1" as="geometry" />
        </mxCell>
        <mxCell id="c1LAtdK7PtH2g0Vv_y1h-8" value="no" style="rounded=0;whiteSpace=wrap;html=1;" vertex="1" parent="WIyWlLk6GJQsqaUBKTNV-1">
          <mxGeometry x="440" y="-700" width="120" height="60" as="geometry" />
        </mxCell>
        <mxCell id="c1LAtdK7PtH2g0Vv_y1h-15" style="edgeStyle=orthogonalEdgeStyle;rounded=0;orthogonalLoop=1;jettySize=auto;html=1;" edge="1" parent="WIyWlLk6GJQsqaUBKTNV-1" source="c1LAtdK7PtH2g0Vv_y1h-10" target="c1LAtdK7PtH2g0Vv_y1h-14">
          <mxGeometry relative="1" as="geometry" />
        </mxCell>
        <mxCell id="c1LAtdK7PtH2g0Vv_y1h-10" value="ĐẠT" style="shape=parallelogram;perimeter=parallelogramPerimeter;whiteSpace=wrap;html=1;fixedSize=1;" vertex="1" parent="WIyWlLk6GJQsqaUBKTNV-1">
          <mxGeometry x="260" y="-560" width="120" height="60" as="geometry" />
        </mxCell>
        <mxCell id="c1LAtdK7PtH2g0Vv_y1h-16" style="edgeStyle=orthogonalEdgeStyle;rounded=0;orthogonalLoop=1;jettySize=auto;html=1;entryX=0.5;entryY=0;entryDx=0;entryDy=0;" edge="1" parent="WIyWlLk6GJQsqaUBKTNV-1" source="c1LAtdK7PtH2g0Vv_y1h-12" target="c1LAtdK7PtH2g0Vv_y1h-14">
          <mxGeometry relative="1" as="geometry" />
        </mxCell>
        <mxCell id="c1LAtdK7PtH2g0Vv_y1h-12" value="KHÔNG ĐẠT" style="shape=parallelogram;perimeter=parallelogramPerimeter;whiteSpace=wrap;html=1;fixedSize=1;rounded=0;" vertex="1" parent="WIyWlLk6GJQsqaUBKTNV-1">
          <mxGeometry x="440" y="-560" width="120" height="60" as="geometry" />
        </mxCell>
        <mxCell id="c1LAtdK7PtH2g0Vv_y1h-14" value="END" style="ellipse;whiteSpace=wrap;html=1;" vertex="1" parent="WIyWlLk6GJQsqaUBKTNV-1">
          <mxGeometry x="354" y="-440" width="120" height="80" as="geometry" />
        </mxCell>
      </root>
    </mxGraphModel>
  </diagram>
</mxfile>
